<svg xmlns="http://www.w3.org/2000/svg" xmlns:xlink="http://www.w3.org/1999/xlink" id="Layer_1" x="0px" y="0px" viewBox="0 0 224 56" style="enable-background:new 0 0 224 56;" xml:space="preserve"><style type="text/css">	.st0{fill:#FF6600;}	.st1{fill:#000000;}</style><path class="st0" d="M64.55,18.23c-0.1-0.04-0.2-0.08-0.29-0.12c-0.58-0.26-1.08-0.64-1.54-1.06c-0.49-0.45-0.99-0.9-1.49-1.35 c-0.35-0.31-0.7-0.6-1.11-0.82c-0.32-0.17-0.65-0.3-1.01-0.4c-0.36-0.1-0.72-0.06-1.08-0.06c-0.15,0-0.31,0.05-0.46,0.1 c-0.26,0.09-0.51,0.2-0.76,0.31c-0.14,0.06-0.17,0.11-0.09,0.25c0.08,0.15,0.17,0.29,0.26,0.43c0.4,0.58,0.72,1.21,1.05,1.83 c0.22,0.41,0.44,0.83,0.64,1.25c0.2,0.44,0.38,0.89,0.56,1.33c0.1,0.24,0.2,0.47,0.29,0.71c0.08,0.21,0.14,0.42,0.21,0.63 c0.08,0.22,0.17,0.44,0.24,0.66c0.07,0.2,0.13,0.41,0.19,0.62c0.1,0.38,0.21,0.75,0.31,1.13c0.08,0.3,0.14,0.61,0.21,0.92 c0.08,0.4,0.16,0.81,0.23,1.21c0.05,0.26,0.08,0.52,0.12,0.79c0.05,0.37,0.1,0.73,0.14,1.1c0.01,0.11,0.01,0.22,0.02,0.33 c0.09,0.95,0.11,1.91,0.1,2.87c0,0.45-0.01,0.91-0.03,1.36c-0.03,0.49-0.09,0.97-0.14,1.46c-0.04,0.35-0.1,0.7-0.15,1.06 c-0.03,0.2-0.05,0.4-0.09,0.6c-0.08,0.41-0.15,0.82-0.25,1.23c-0.14,0.59-0.28,1.18-0.44,1.76c-0.07,0.25-0.17,0.48-0.26,0.73 c-0.06,0.18-0.12,0.35-0.18,0.53c-0.09,0.27-0.19,0.55-0.29,0.82c-0.15,0.39-0.31,0.77-0.47,1.15c-0.09,0.21-0.19,0.41-0.28,0.62 c-0.38,0.85-0.86,1.65-1.34,2.44c-0.28,0.45-0.57,0.9-0.86,1.34c-0.18,0.26-0.39,0.51-0.58,0.76c-0.24,0.31-0.48,0.62-0.74,0.92 c-0.39,0.47-0.8,0.94-1.26,1.35c-0.3,0.27-0.56,0.57-0.85,0.83c-0.49,0.43-0.98,0.84-1.49,1.25c-0.66,0.53-1.36,0.99-2.07,1.44 c-0.7,0.44-1.41,0.85-2.16,1.2c-0.51,0.24-1.03,0.45-1.55,0.66c-0.54,0.21-1.09,0.41-1.64,0.6c-0.47,0.16-0.94,0.28-1.41,0.42 c-0.34,0.1-0.68,0.21-1.02,0.3c-0.17,0.05-0.35,0.07-0.53,0.11c-0.19,0.04-0.38,0.09-0.57,0.13c-0.09,0.02-0.17,0.03-0.3,0.05 c0.09-0.14,0.22-0.16,0.32-0.21c0.56-0.25,1.13-0.49,1.7-0.75c0.44-0.2,0.88-0.42,1.31-0.64c0.61-0.32,1.23-0.64,1.83-0.99 c0.51-0.3,1-0.62,1.5-0.95c0.48-0.32,0.94-0.65,1.41-0.99c0.4-0.29,0.79-0.59,1.17-0.91c0.62-0.54,1.24-1.08,1.84-1.64 c0.34-0.32,0.65-0.69,0.97-1.04c0.73-0.8,1.41-1.64,2.02-2.53c0.41-0.59,0.79-1.19,1.14-1.82c0.25-0.45,0.47-0.92,0.7-1.38 c0.1-0.19,0.21-0.38,0.29-0.57c0.12-0.27,0.21-0.54,0.32-0.81c0.1-0.26,0.2-0.53,0.29-0.8c0.08-0.24,0.15-0.49,0.22-0.73 c0.07-0.23,0.13-0.46,0.19-0.7c0.05-0.19,0.1-0.37,0.14-0.56c0.05-0.19,0.09-0.39,0.14-0.58c0-0.01,0.01-0.03,0.01-0.04 c0.03-0.24,0.06-0.48,0.1-0.72c0.02-0.12,0.07-0.24,0.07-0.37c0.01-0.46,0.14-0.91,0.1-1.37c0.14-0.72,0.06-1.45,0.07-2.17 c0-0.17-0.04-0.34-0.06-0.52c-0.01-0.1-0.01-0.2-0.02-0.29c-0.01-0.2,0.01-0.4-0.07-0.6c-0.03-0.07-0.01-0.15-0.02-0.23 c-0.02-0.12-0.04-0.25-0.06-0.37c-0.01-0.03-0.01-0.07-0.02-0.1c-0.03-0.23-0.05-0.46-0.1-0.68c-0.06-0.29-0.15-0.57-0.23-0.86 c-0.09-0.34-0.17-0.68-0.28-1.02c-0.1-0.32-0.22-0.64-0.34-0.95c-0.12-0.31-0.25-0.63-0.39-0.93c-0.12-0.27-0.27-0.53-0.41-0.8 c-0.39-0.77-0.87-1.49-1.35-2.21c-0.13-0.2-0.32-0.36-0.47-0.55c-0.44-0.56-0.9-1.12-1.43-1.6c-0.33-0.3-0.67-0.58-1.02-0.86 c-0.46-0.38-0.94-0.72-1.45-1.03c-0.4-0.24-0.8-0.5-1.21-0.7c-0.58-0.29-1.18-0.54-1.79-0.75c-0.41-0.14-0.84-0.25-1.26-0.37 c-0.32-0.09-0.65-0.16-0.97-0.23c-0.26-0.05-0.53-0.06-0.78-0.11c-0.46-0.1-0.93-0.08-1.4-0.12c-0.51-0.05-1.02-0.05-1.53,0.03 c-0.29,0.05-0.58,0.07-0.87,0.11c-0.14,0.02-0.27,0.06-0.41,0.09c-0.45,0.1-0.89,0.21-1.32,0.38c-0.5,0.2-1,0.4-1.5,0.62 c-0.28,0.13-0.54,0.3-0.81,0.45c-0.56,0.32-1.06,0.72-1.56,1.12c-0.58,0.46-1.13,0.95-1.62,1.49c-0.69,0.76-1.39,1.52-2.01,2.35 c-0.21,0.28-0.44,0.55-0.66,0.83c-0.29,0.38-0.57,0.76-0.86,1.14c-0.06,0.08-0.12,0.15-0.18,0.23c-0.5-0.41-0.97-0.82-1.35-1.33 c-0.21-0.28-0.4-0.56-0.58-0.86c-0.33-0.56-0.57-1.15-0.69-1.8c-0.09-0.47-0.16-0.95-0.14-1.44c0.02-0.52,0.07-1.04,0.21-1.55 c0.1-0.38,0.21-0.77,0.35-1.14c0.11-0.31,0.27-0.6,0.4-0.91c0.26-0.64,0.65-1.2,1-1.79c0.19-0.31,0.44-0.59,0.65-0.88 c0.44-0.6,0.93-1.17,1.46-1.69c0.51-0.51,1.01-1.03,1.58-1.48c0.77-0.61,1.53-1.22,2.37-1.74c0.5-0.31,1-0.61,1.55-0.82 c0.54-0.21,1.09-0.42,1.64-0.62c0.37-0.13,0.74-0.23,1.12-0.33c0.29-0.08,0.58-0.13,0.87-0.19c0.35-0.08,0.71-0.15,1.06-0.23 c0.02,0,0.04-0.01,0.06-0.01c0.39-0.05,0.77-0.11,1.16-0.16c0.09-0.01,0.18-0.01,0.27-0.01c0.2-0.02,0.4-0.04,0.6-0.06 c0.09-0.01,0.18-0.02,0.27-0.02c0.83,0,1.66-0.01,2.5,0c0.2,0,0.4,0.05,0.6,0.07c0.39,0.04,0.78,0.06,1.17,0.1 c0.27,0.03,0.53,0.09,0.8,0.14c0.22,0.04,0.44,0.07,0.66,0.11c0.16,0.03,0.32,0.06,0.47,0.09c0.38,0.1,0.76,0.21,1.14,0.3 c0.62,0.15,1.21,0.36,1.8,0.58c0.37,0.14,0.73,0.31,1.11,0.43c0.57,0.19,1.1,0.47,1.63,0.74c0.75,0.39,1.49,0.81,2.18,1.3 c0.34,0.24,0.69,0.46,1.02,0.71c0.4,0.31,0.79,0.63,1.18,0.96c0.64,0.55,1.24,1.14,1.81,1.76c0.43,0.47,0.83,0.96,1.2,1.48 c0.25,0.35,0.52,0.68,0.75,1.04c0.29,0.46,0.55,0.94,0.83,1.41c0.06,0.11,0.12,0.23,0.18,0.34C64.58,18.21,64.56,18.22,64.55,18.23z "></path><path class="st0" d="M31.32,0.25c-0.2,0.09-0.4,0.18-0.6,0.27c-0.63,0.27-1.26,0.53-1.89,0.81c-0.41,0.19-0.82,0.39-1.21,0.61 c-0.72,0.41-1.44,0.82-2.14,1.25c-0.42,0.25-0.82,0.53-1.22,0.8c-0.43,0.3-0.85,0.6-1.27,0.91c-0.18,0.13-0.35,0.28-0.51,0.43 c-0.49,0.43-1.03,0.81-1.49,1.28c-0.22,0.23-0.47,0.43-0.71,0.65c-0.09,0.09-0.18,0.18-0.26,0.27c-0.21,0.23-0.4,0.46-0.62,0.68 c-0.28,0.28-0.53,0.59-0.76,0.91c-0.11,0.16-0.25,0.3-0.38,0.44c-0.33,0.36-0.59,0.78-0.86,1.18c-0.13,0.18-0.27,0.36-0.39,0.55 c-0.27,0.44-0.54,0.88-0.8,1.32c-0.16,0.28-0.31,0.57-0.46,0.86c-0.18,0.37-0.36,0.74-0.52,1.11c-0.11,0.25-0.19,0.5-0.29,0.76 c-0.08,0.2-0.18,0.39-0.25,0.59c-0.11,0.33-0.2,0.66-0.3,1c-0.1,0.34-0.2,0.68-0.29,1.02c-0.05,0.19-0.09,0.38-0.13,0.57 c-0.05,0.24-0.1,0.49-0.14,0.74c-0.04,0.2-0.08,0.4-0.1,0.6c-0.04,0.42-0.06,0.83-0.1,1.25c-0.01,0.15-0.03,0.3-0.05,0.46 c-0.01,0.1-0.03,0.19-0.03,0.29c0,0.45,0,0.91,0,1.36c0,0.22,0.01,0.43,0.06,0.64c0.04,0.17,0.01,0.35,0.02,0.52 c0.01,0.12,0.04,0.25,0.06,0.37c0,0.02,0.01,0.04,0.02,0.06c0.03,0.28,0.06,0.55,0.1,0.83c0.03,0.2,0.07,0.4,0.11,0.59 c0.04,0.22,0.09,0.43,0.15,0.65c0.05,0.2,0.12,0.4,0.18,0.6c0.08,0.25,0.15,0.49,0.23,0.73c0.12,0.34,0.24,0.68,0.38,1.02 c0.09,0.22,0.19,0.45,0.29,0.66c0.13,0.27,0.26,0.54,0.4,0.8c0.21,0.4,0.43,0.81,0.66,1.2c0.17,0.29,0.37,0.56,0.57,0.82 c0.31,0.41,0.62,0.81,0.94,1.2c0.21,0.25,0.42,0.5,0.65,0.73c0.32,0.32,0.65,0.63,0.98,0.94c0.23,0.2,0.47,0.39,0.71,0.57 c0.32,0.24,0.64,0.49,0.98,0.71c0.33,0.21,0.68,0.4,1.03,0.59c0.28,0.15,0.57,0.3,0.85,0.44c0.66,0.32,1.35,0.58,2.05,0.78 c0.54,0.16,1.1,0.26,1.65,0.38c0.43,0.09,0.87,0.13,1.31,0.18c0.75,0.08,1.51,0.1,2.26,0.04c0.44-0.03,0.87-0.13,1.3-0.21 c0.27-0.05,0.53-0.12,0.79-0.19c0.83-0.22,1.62-0.56,2.37-0.97c0.37-0.2,0.73-0.43,1.09-0.66c0.37-0.25,0.73-0.51,1.07-0.79 c0.41-0.34,0.79-0.71,1.18-1.07c0.14-0.13,0.29-0.26,0.42-0.41c0.21-0.23,0.42-0.46,0.62-0.7c0.24-0.27,0.47-0.55,0.7-0.83 c0.27-0.33,0.53-0.66,0.79-0.99c0.17-0.21,0.34-0.41,0.5-0.62c0.29-0.39,0.58-0.78,0.87-1.17c0.05-0.07,0.1-0.13,0.16-0.21 c0.1,0.08,0.16,0.12,0.22,0.17c0.3,0.29,0.6,0.59,0.89,0.89c0.11,0.11,0.19,0.25,0.3,0.38c0.39,0.46,0.69,0.98,0.91,1.54 c0.13,0.32,0.21,0.66,0.28,1c0.12,0.55,0.17,1.1,0.15,1.65c0,0.08-0.03,0.16-0.04,0.24c-0.01,0.05-0.04,0.11-0.03,0.16 c0.03,0.26-0.05,0.51-0.1,0.76c-0.08,0.36-0.2,0.7-0.3,1.05c-0.13,0.45-0.34,0.87-0.54,1.28c-0.18,0.37-0.4,0.73-0.62,1.09 c-0.18,0.3-0.36,0.6-0.57,0.88c-0.26,0.34-0.49,0.69-0.77,1.01c-0.44,0.5-0.85,1.03-1.34,1.49c-0.42,0.39-0.84,0.78-1.27,1.16 c-0.32,0.29-0.68,0.54-1.01,0.81c-0.49,0.4-1.02,0.75-1.56,1.08c-0.55,0.34-1.1,0.67-1.72,0.88c-0.39,0.14-0.78,0.29-1.17,0.42 c-0.27,0.09-0.55,0.17-0.83,0.25c-0.26,0.08-0.52,0.15-0.78,0.22c-0.09,0.02-0.18,0.03-0.27,0.04c-0.38,0.07-0.75,0.13-1.13,0.2 c-0.24,0.05-0.49,0.1-0.73,0.15c-0.07,0.01-0.14,0-0.21,0.01c-0.1,0.01-0.2,0.03-0.31,0.05c-0.03,0-0.05,0.02-0.08,0.02 c-0.37-0.01-0.73,0.08-1.1,0.08c-0.94,0.02-1.89,0.01-2.83,0c-0.11,0-0.22-0.04-0.33-0.05c-0.15-0.01-0.29-0.02-0.44-0.03 c-0.16-0.02-0.32-0.04-0.47-0.06c-0.02,0-0.04-0.01-0.06-0.01c-0.29-0.03-0.58-0.06-0.87-0.1c-0.22-0.03-0.43-0.09-0.65-0.13 c-0.31-0.06-0.62-0.1-0.92-0.16c-0.17-0.03-0.34-0.07-0.51-0.11c-0.28-0.07-0.56-0.15-0.84-0.23c-0.2-0.06-0.4-0.12-0.59-0.19 c-0.27-0.1-0.55-0.2-0.82-0.3c-0.36-0.14-0.72-0.28-1.08-0.42c-0.84-0.35-1.65-0.76-2.44-1.21c-0.5-0.28-0.97-0.6-1.45-0.91 c-0.59-0.39-1.14-0.82-1.69-1.26c-0.76-0.6-1.46-1.28-2.11-1.99c-0.59-0.64-1.16-1.3-1.64-2.03c-0.26-0.39-0.51-0.78-0.76-1.18 c-0.23-0.36-0.44-0.73-0.66-1.1c0.01-0.01,0.02-0.03,0.03-0.04C7.24,37.97,7.3,37.98,7.36,38c0.43,0.18,0.81,0.43,1.16,0.73 c0.27,0.23,0.52,0.49,0.8,0.71c0.53,0.41,0.98,0.92,1.5,1.33c0.39,0.31,0.8,0.58,1.26,0.77c0.37,0.16,0.77,0.24,1.18,0.21 c0.06,0,0.11-0.01,0.17,0c0.47,0.03,0.89-0.11,1.31-0.29c0.09-0.04,0.18-0.08,0.26-0.12c0.13-0.07,0.14-0.09,0.07-0.23 c-0.03-0.06-0.07-0.12-0.11-0.18c-0.42-0.6-0.79-1.24-1.13-1.9c-0.17-0.33-0.35-0.66-0.52-0.99c-0.43-0.85-0.8-1.73-1.13-2.63 c-0.18-0.5-0.34-1.01-0.5-1.52c-0.11-0.34-0.19-0.68-0.28-1.02c-0.05-0.17-0.11-0.34-0.16-0.51c-0.04-0.14-0.07-0.28-0.1-0.42 c-0.04-0.18-0.06-0.37-0.1-0.55c-0.04-0.22-0.1-0.43-0.15-0.65c-0.01-0.05-0.01-0.11-0.02-0.17c-0.02-0.1-0.04-0.2-0.06-0.3 c-0.01-0.06-0.02-0.12-0.03-0.19c-0.02-0.09-0.04-0.19-0.06-0.28c0-0.02-0.02-0.04-0.02-0.06c-0.01-0.28-0.02-0.57-0.08-0.85 c-0.04-0.19,0-0.39-0.08-0.58c-0.03-0.07-0.01-0.17-0.01-0.25c-0.02-0.33,0.04-0.66-0.08-0.98c-0.01-0.04-0.01-0.08-0.01-0.13 c0-0.86,0-1.72,0-2.58c0-0.08,0.03-0.16,0.04-0.25c0.01-0.07,0.03-0.14,0.03-0.21c0.01-0.19,0.01-0.38,0.01-0.57 c0-0.15,0.01-0.3,0.06-0.45c0.04-0.15,0.02-0.32,0.03-0.48c0.01-0.1,0.03-0.19,0.05-0.29c0.01-0.05,0.02-0.1,0.03-0.14 c0.01-0.17,0.03-0.34,0.07-0.51c0.06-0.26,0.07-0.54,0.11-0.8c0.03-0.17,0.07-0.34,0.11-0.51c0.05-0.21,0.09-0.42,0.14-0.63 c0.04-0.18,0.07-0.37,0.12-0.55c0.1-0.37,0.22-0.74,0.33-1.11c0.1-0.32,0.18-0.64,0.29-0.96c0.2-0.58,0.4-1.16,0.63-1.73 c0.29-0.71,0.59-1.41,0.97-2.08c0.19-0.33,0.36-0.68,0.55-1.01c0.28-0.47,0.56-0.93,0.86-1.38c0.22-0.34,0.47-0.67,0.72-1 c0.28-0.38,0.56-0.75,0.85-1.12c0.04-0.05,0.1-0.1,0.15-0.14c0.09-0.09,0.2-0.17,0.28-0.28c0.26-0.37,0.6-0.66,0.91-0.99 c0.72-0.77,1.51-1.45,2.33-2.1c0.53-0.41,1.06-0.81,1.63-1.17c0.9-0.57,1.83-1.12,2.8-1.56c0.61-0.28,1.22-0.57,1.85-0.81 c0.72-0.27,1.47-0.48,2.21-0.71c0.41-0.13,0.83-0.25,1.24-0.37c0.3-0.08,0.6-0.14,0.9-0.21c0.18-0.04,0.37-0.07,0.55-0.11 C31.3,0.22,31.31,0.24,31.32,0.25z"></path><path class="st0" d="M39.27,28.08c0,0.65-0.16,1.25-0.52,1.78c-0.18,0.27-0.39,0.52-0.65,0.73c-0.24,0.19-0.49,0.36-0.77,0.49 c-0.16,0.07-0.32,0.13-0.48,0.19c-0.2,0.07-0.4,0.1-0.61,0.1c-0.06,0-0.12,0.03-0.18,0.04c-0.11,0.01-0.22,0.02-0.33,0.01 c-0.14-0.01-0.27-0.04-0.41-0.06c-0.12-0.02-0.24-0.05-0.36-0.08c-0.47-0.12-0.87-0.33-1.25-0.64c-0.41-0.33-0.72-0.74-0.97-1.19 c-0.11-0.21-0.16-0.46-0.21-0.69c-0.06-0.28-0.12-0.58-0.08-0.87c0.03-0.24,0.09-0.47,0.14-0.71c0.04-0.24,0.15-0.46,0.27-0.67 c0.27-0.47,0.62-0.88,1.07-1.18c0.27-0.18,0.54-0.36,0.88-0.41c0.07-0.01,0.13-0.04,0.2-0.07c0.31-0.12,0.63-0.08,0.95-0.1 c0.05,0,0.1,0.01,0.15,0.01c0.28-0.01,0.54,0.07,0.81,0.14c0.33,0.09,0.64,0.24,0.91,0.44c0.39,0.28,0.74,0.61,0.99,1.04 c0.22,0.37,0.35,0.77,0.43,1.19C39.27,27.73,39.26,27.9,39.27,28.08z"></path><path class="st0" d="M42.05,26.03c-0.76,0.04-1.31-0.23-1.81-0.66c-0.34-0.29-0.54-0.64-0.68-1.05c-0.04-0.13-0.07-0.25-0.08-0.38 c0-0.07-0.04-0.13-0.04-0.2c-0.01-0.11-0.01-0.22,0-0.33c0-0.05,0.04-0.09,0.04-0.14c-0.01-0.32,0.13-0.59,0.27-0.86 c0.21-0.42,0.55-0.71,0.94-0.95c0.5-0.31,1.05-0.41,1.62-0.33c0.41,0.05,0.79,0.21,1.13,0.46c0.22,0.17,0.44,0.35,0.6,0.58 c0.13,0.19,0.22,0.4,0.32,0.6c0.08,0.16,0.1,0.33,0.1,0.51c0,0.05,0,0.12,0.03,0.16c0.06,0.12,0.06,0.22,0,0.34 c-0.02,0.05-0.02,0.11-0.03,0.16c-0.03,0.45-0.21,0.83-0.49,1.17c-0.35,0.42-0.8,0.7-1.33,0.86C42.41,26.04,42.18,26.01,42.05,26.03 z"></path><path class="st0" d="M29.77,35.01c-0.47,0.04-0.88-0.11-1.28-0.32c-0.54-0.28-0.88-0.73-1.1-1.27c-0.14-0.33-0.15-0.7-0.12-1.07 c0.02-0.23,0.06-0.45,0.14-0.67c0.12-0.31,0.31-0.57,0.54-0.81c0.23-0.24,0.49-0.45,0.79-0.58c0.26-0.11,0.53-0.22,0.82-0.21 c0.06,0,0.13,0,0.19,0c0.7-0.03,1.29,0.24,1.8,0.7c0.29,0.27,0.51,0.59,0.61,0.98c0.06,0.22,0.11,0.44,0.15,0.67 c0.04,0.25-0.04,0.5-0.09,0.74c-0.1,0.47-0.36,0.85-0.69,1.2c-0.22,0.23-0.51,0.33-0.78,0.46C30.42,34.98,30.1,35.04,29.77,35.01z"></path><path class="st0" d="M24.93,30.58c-0.03,0.91-0.35,1.42-0.96,1.73c-0.15,0.08-0.3,0.15-0.47,0.14c-0.05,0-0.11,0.01-0.16,0.03 c-0.1,0.05-0.2,0.05-0.3,0c-0.04-0.02-0.09-0.03-0.14-0.03c-0.38-0.02-0.7-0.2-0.96-0.45c-0.22-0.21-0.38-0.49-0.45-0.81 c-0.03-0.15-0.08-0.29-0.07-0.45c0.04-0.61,0.32-1.08,0.83-1.41c0.16-0.1,0.34-0.19,0.53-0.23c0.17-0.04,0.35-0.03,0.52-0.03 c0.43,0,0.81,0.17,1.1,0.47C24.74,29.88,24.95,30.29,24.93,30.58z"></path><path class="st0" d="M48.55,23.67c0.47-0.06,0.86,0.15,1.2,0.44c0.22,0.19,0.35,0.45,0.45,0.72c0.07,0.18,0.1,0.37,0.09,0.57 c-0.04,0.7-0.37,1.22-1,1.52c-0.27,0.13-0.57,0.15-0.87,0.14c-0.43-0.01-0.77-0.21-1.09-0.46c-0.11-0.09-0.2-0.22-0.27-0.34 c-0.17-0.3-0.29-0.61-0.27-0.97c0.02-0.34,0.15-0.63,0.33-0.9c0.18-0.27,0.44-0.44,0.72-0.59C48.05,23.68,48.3,23.63,48.55,23.67z"></path><path class="st0" d="M20.43,26.96c0.03,0.67-0.62,1.1-1.14,1.16c-0.3-0.08-0.62-0.12-0.84-0.36c-0.21-0.23-0.35-0.49-0.34-0.82 c0-0.57,0.48-1.11,1.18-1.11C19.95,25.82,20.49,26.43,20.43,26.96z"></path><path class="st0" d="M52.46,28.06c0.7-0.06,1.18,0.6,1.16,1.15c-0.02,0.68-0.55,1.11-1.16,1.12c-0.57,0.01-1.16-0.46-1.15-1.16 C51.32,28.62,51.78,28.01,52.46,28.06z"></path><path class="st1" d="M93.36,34.52c0,1.51-0.02,3.02,0.01,4.53c0.01,0.72-0.29,1.2-0.85,1.64c-6.89,5.87-17.59,2.83-21.39-5.11 C65,24.28,75.76,8.34,88.75,13.36c1.59,0.76,6.34,2.64,4.06,4.84c-1.05,0.64-2.03-0.96-2.98-1.32c-0.95-0.58-1.94-1.05-3.04-1.32 C70.37,12.14,66.16,37.45,82,40.79c2.97,0.51,5.95-0.06,8.4-1.83c0.86-0.39,0.21-5.95,0.39-7.24c0-0.55-0.07-0.61-0.68-0.61 c-1.56-0.28-6.83,0.93-6.45-1.59c0-0.88,0.75-1.18,1.5-1.15C93.83,28.8,93.49,26.13,93.36,34.52z"></path><path class="st1" d="M110.55,28.16c-3.14-4.6-6.57-9.01-9.7-13.61c-0.71-1.25,0.89-2.67,1.97-1.54c3.33,4.11,5.95,8.89,9.5,12.78 c2.81-3.68,5.38-7.4,8.13-11.1c0.64-0.73,0.95-2.02,2.08-2.05c3.18,0.58-1.18,4.89-1.9,6.22c-2.19,2.83-4.15,5.83-6.26,8.71 c-0.48,0.46-0.34,0.86,0.01,1.33c2.13,2.96,4.17,6,6.41,8.88c0.88,1.22,1.73,2.47,2.61,3.69c0.35,0.49,0.32,1.02,0.2,1.54 c-1.42,2.94-4.04-2.88-5.09-3.88c-1.93-2.69-3.85-5.4-5.8-8.07c-0.33-0.45-0.6-0.46-0.92-0.02c-1.11,1.55-2.21,3.11-3.32,4.65 c-1.47,1.93-2.87,3.91-4.24,5.9c-0.44,0.62-0.88,1.25-1.39,1.81c-1,1.19-2.77-0.3-1.99-1.54C103.9,37.18,107.55,32.88,110.55,28.16z "></path><path class="st1" d="M144.25,40.78c2.1,0.13,4.16-0.51,6.02-1.43c0.96-0.37,1.64-1.47,2.77-1.4c6.37,2.5-12.32,10.97-20.41,0.54 c-12.99-13.88,7.83-33.84,21.58-21.64c0.9,0.99-0.52,2.77-1.61,2.05c-19.05-12.98-31.51,19.84-8.35,21.91 C144.25,40.8,144.25,40.79,144.25,40.78z"></path></svg>
